<svg xmlns="http://www.w3.org/2000/svg" width="51.846" height="51.58" viewBox="0 0 51.846 51.58">
  <g id="_x31_" transform="translate(0 -0.331)">
    <path id="_x3C_Path_x3E__20_" d="M21.142,33.854A10.571,10.571,0,1,0,31.712,44.425,10.57,10.57,0,0,0,21.142,33.854Zm0,15.859a5.285,5.285,0,1,1,5.282-5.288A5.29,5.29,0,0,1,21.142,49.713Zm0-26.43A21.142,21.142,0,1,0,42.283,44.425,21.14,21.14,0,0,0,21.142,23.283Zm0,37A15.856,15.856,0,1,1,36.995,44.424,15.86,15.86,0,0,1,21.142,60.283Zm0-26.43A10.571,10.571,0,1,0,31.712,44.425,10.57,10.57,0,0,0,21.142,33.854Zm0,15.859a5.285,5.285,0,1,1,5.282-5.288A5.29,5.29,0,0,1,21.142,49.713Z" transform="translate(0 -13.655)" fill="#00ff4c"/>
    <path id="Tracé_2286" data-name="Tracé 2286" d="M51.441,31.693a.869.869,0,0,1-.614-1.483l16.5-16.5.484-6.773a.859.859,0,0,1,.928-.8.869.869,0,0,1,.8.928L69.2,11.838,70.934,10.1l.433-6.063a.856.856,0,0,1,.928-.8.869.869,0,0,1,.8.928l-.29,4.063,1.735-1.735.382-5.354a.869.869,0,0,1,1.733.124l-.326,4.575c.017.015.033.03.049.045s.031.032.045.049L81,5.6a.869.869,0,1,1,.124,1.733l-5.353.383L74.039,9.455l4.063-.29a.869.869,0,1,1,.124,1.733l-6.062.433-1.735,1.735,4.773-.341a.869.869,0,1,1,.124,1.733l-6.773.484-16.5,16.5A.868.868,0,0,1,51.441,31.693Z" transform="translate(-30.087 0)" fill="#00ff4c"/>
  </g>
</svg>
