<svg xmlns="http://www.w3.org/2000/svg" width="36.25" height="39.948" viewBox="0 0 36.25 39.948">
  <g id="Brain_Icon" data-name="Brain Icon" transform="translate(-114.288 28.075)">
    <path id="path179" d="M132.413-24.343s-1.627-3.619-5.216-2.509c-4.076,1.26-3.565,4.644-3.565,4.644a4.22,4.22,0,0,0-4.38,2.3,4.876,4.876,0,0,0,.064,5.324,4.744,4.744,0,0,0-3.942,3.922,5.306,5.306,0,0,0,1.783,4.632,4.588,4.588,0,0,0-1.707,4.446,4.7,4.7,0,0,0,4.372,4.045,4.562,4.562,0,0,0,5.262,5.559c1.439,3.675,6.2,3.682,7.326.688" fill="none" stroke="#fff" stroke-linecap="round" stroke-linejoin="round" stroke-miterlimit="11.339" stroke-width="2"/>
    <path id="path180" d="M129.8,133.207a6.253,6.253,0,0,1,3.648-1.062" transform="translate(-12.683 -139.312)" fill="none" stroke="#fff" stroke-linecap="round" stroke-linejoin="round" stroke-miterlimit="11.339" stroke-width="2"/>
    <path id="path181" d="M161.357,109.32a2.767,2.767,0,0,0-1.736,3.268c.432,2.582,2.24,2.693,2.24,2.693" transform="translate(-38.734 -119.366)" fill="none" stroke="#fff" stroke-linecap="round" stroke-linejoin="round" stroke-miterlimit="11.339" stroke-width="2"/>
    <path id="path182" d="M181.42,12.8s1.044,2.637,3.107,2.411,1.813-2.477,1.813-2.477" transform="translate(-57.862 -34.828)" fill="none" stroke="#fff" stroke-linecap="round" stroke-linejoin="round" stroke-miterlimit="11.339" stroke-width="2"/>
    <path id="path183" d="M150.14,192.384s2.8-3.107,5.026-2.245,1.028,3.362-.591,4.235" transform="translate(-30.485 -189.969)" fill="none" stroke="#fff" stroke-linecap="round" stroke-linejoin="round" stroke-miterlimit="11.339" stroke-width="2"/>
    <path id="path184" d="M194.44,172.456a7.27,7.27,0,0,0,3.7-3.887c.89-2.675.442-6.23-1.813-7.419" transform="translate(-69.258 -164.729)" fill="none" stroke="#fff" stroke-linecap="round" stroke-linejoin="round" stroke-miterlimit="11.339" stroke-width="2"/>
    <path id="path185" d="M145.57,73.98s4.24-.221,6.629,1.415,2.035,4.81-1.155,5.473" transform="translate(-26.486 -88.427)" fill="none" stroke="#fff" stroke-linecap="round" stroke-linejoin="round" stroke-miterlimit="11.339" stroke-width="2"/>
    <path id="path186" d="M252.39-24.343s1.627-3.619,5.216-2.509c4.077,1.26,3.565,4.644,3.565,4.644a4.22,4.22,0,0,1,4.38,2.3,4.876,4.876,0,0,1-.064,5.324,4.743,4.743,0,0,1,3.942,3.922,5.306,5.306,0,0,1-1.783,4.632,4.588,4.588,0,0,1,1.707,4.446,4.7,4.7,0,0,1-4.372,4.045,4.562,4.562,0,0,1-5.262,5.559c-1.439,3.675-6.2,3.682-7.326.688" transform="translate(-119.977)" fill="none" stroke="#fff" stroke-linecap="round" stroke-linejoin="round" stroke-miterlimit="11.339" stroke-width="2"/>
    <path id="path187" d="M349.388,133.207a6.253,6.253,0,0,0-3.648-1.062" transform="translate(-201.679 -139.312)" fill="none" stroke="#fff" stroke-linecap="round" stroke-linejoin="round" stroke-miterlimit="11.339" stroke-width="2"/>
    <path id="path188" d="M327.314,109.32a2.767,2.767,0,0,1,1.736,3.268c-.432,2.582-2.24,2.693-2.24,2.693" transform="translate(-185.111 -119.366)" fill="none" stroke="#fff" stroke-linecap="round" stroke-linejoin="round" stroke-miterlimit="11.339" stroke-width="2"/>
    <path id="path189" d="M288.784,12.8s-1.044,2.637-3.107,2.411-1.813-2.477-1.813-2.477" transform="translate(-147.515 -34.828)" fill="none" stroke="#fff" stroke-linecap="round" stroke-linejoin="round" stroke-miterlimit="11.339" stroke-width="2"/>
    <path id="path190" d="M310.819,192.384s-2.8-3.107-5.026-2.245-1.028,3.362.591,4.235" transform="translate(-165.648 -189.969)" fill="none" stroke="#fff" stroke-linecap="round" stroke-linejoin="round" stroke-miterlimit="11.339" stroke-width="2"/>
    <path id="path191" d="M281.343,172.456a7.27,7.27,0,0,1-3.7-3.887c-.89-2.675-.442-6.23,1.813-7.419" transform="translate(-141.701 -164.729)" fill="none" stroke="#fff" stroke-linecap="round" stroke-linejoin="round" stroke-miterlimit="11.339" stroke-width="2"/>
    <path id="path192" d="M301.822,73.98s-4.24-.221-6.629,1.415-2.034,4.81,1.155,5.473" transform="translate(-156.08 -88.427)" fill="none" stroke="#fff" stroke-linecap="round" stroke-linejoin="round" stroke-miterlimit="11.339" stroke-width="2"/>
    <path id="path193" d="M252.39-5.26V27.789" transform="translate(-119.977 -19.083)" fill="none" stroke="#fff" stroke-linecap="round" stroke-linejoin="round" stroke-miterlimit="11.339" stroke-width="2"/>
    <path id="path194" d="M191.466,53.43a20.48,20.48,0,0,1-8.686-2.67" transform="translate(-59.053 -68.113)" fill="none" stroke="#fff" stroke-linecap="round" stroke-linejoin="round" stroke-miterlimit="11.339" stroke-width="2"/>
    <path id="path195" d="M252,53.43a20.48,20.48,0,0,0,8.686-2.67" transform="translate(-119.636 -68.113)" fill="none" stroke="#fff" stroke-linecap="round" stroke-linejoin="round" stroke-miterlimit="11.339" stroke-width="2"/>
  </g>
</svg>
