<?xml version="1.0" encoding="utf-8"?>
<!-- Generator: Adobe Illustrator 27.5.0, SVG Export Plug-In . SVG Version: 6.00 Build 0)  -->
<svg version="1.1" xmlns="http://www.w3.org/2000/svg" xmlns:xlink="http://www.w3.org/1999/xlink" x="0px" y="0px"
	 viewBox="0 0 500 500" style="enable-background:new 0 0 500 500;" xml:space="preserve">
<style type="text/css">
	.st0{fill:#FFFFFF;}
	.st1{fill:none;stroke:#474747;stroke-width:2;stroke-linecap:round;stroke-linejoin:round;stroke-miterlimit:11.3386;}
</style>
<g id="BACKGROUND">
</g>
<g id="OBJECTS">
	<rect id="Latar4" x="756.1" y="138.95" class="st0" width="500" height="500">
	</rect>
	<g id="g612" transform="matrix(0.80009462,0,0,0.79830237,212.8637,127.83445)">
		<path id="path609" class="st1" d="M1136.48,95.83c-5.92-5.84-5.77-18.39,4.64-23.51c8.88-4.37,17.51-0.05,17.51-0.05
			s2.12-9.74,11.04-12.37c12.95-3.81,19.13,2.15,20.86,7.85c0.93,3.09-0.36,9.29-3.26,13.74"/>
		<path id="path610" class="st1" d="M1190.24,65.21c0,0,7.75-6.55,21.07,0.88c13.32,7.43,10.35,17.06,10.35,17.06
			s10.77-1.54,15.84,6.61c5.07,8.15,2.23,17.81-3.66,19.24"/>
		<path id="path611" class="st1" d="M1240.87,99.78c0,0,10.64,1.38,10.48,13.45c-0.16,12.07-12.61,25.63-25.61,19.85
			c0.78,9.6,7,16.25,11.34,19.77c2.01,1.63,2.02,4.69-0.02,6.28l-0.04,0.03c-0.91,0.71-2.08,0.99-3.21,0.77
			c-5.52-1.1-22.15-5.24-28.42-16.24c-10.77,6.93-26.84,6.06-35.37-8.54c-15.47,9.87-31.21,3.9-35.03-4.17
			c-3.82-8.07,0.27-18.71,12.13-19.21"/>
		<path id="path612" class="st1" d="M1134.14,120.3c0,0-12.92-3.29-14.17-14.6c-1.25-11.3,5.55-18.95,11.81-19.58"/>
		<path id="path432" class="st1" d="M1161.11,127.83c0,0,2.95,7.69,14.93,7.69s13.36-9.31,13.36-9.31"/>
		<path id="path433" class="st1" d="M1173.6,122.07c0,0-0.14-9.26,7.93-11.41c8.06-2.15,17.05,0.46,21.43,9.91
			c4.38,9.44-2.35,14.87-5.53,16.74"/>
		<path id="path434" class="st1" d="M1173.45,73.15c0,0-8.23,10.46,2.76,17.96c10.99,7.5,16.86,5.59,21.7,0.72
			c4.84-4.87,5.69-12.15,5.69-12.15"/>
		<path id="path435" class="st1" d="M1223.17,96.68c0,0-8.2,3.3-6.77,12.54c1.43,9.24,11.93,12.56,14.88,12.45"/>
		<path id="path436" class="st1" d="M1153.79,99.39c0,0-6.8,3-5.37,11.85c1.43,8.84,9.08,7.87,9.08,7.87"/>
		<path id="path437" class="st1" d="M1159.79,107.69c0,0,7.97-4.53,6.04-13.16c-1.94-8.64-12.97-11.66-18.64-9.58"/>
	</g>
	<g id="g632" transform="matrix(1.0381528,0,0,1.0327701,-96.565372,155.96549)">
		<g id="g619">
			<g id="g629" transform="matrix(0.42775868,0,0,0.42559902,370.188,17.677543)">
				<g id="g623">
					<path id="path617" class="st1" d="M1189.07,304.95c0,0-3.12-17.73,6.27-22.52c6.27-3.2,14.94-0.65,14.94-0.65
						s1.57-19.66,23.33-14.2l-0.29,103.97c0,0-20.49,3.61-27.44-10.03c-18.15-3.34-19.85-19.66-16.32-24.36
						c-11.33-12.34-8.09-23.17-4.67-28.77s20.62-6.46,20.2,3.66c-0.55,13.08-11.15,9.31-12.34,4.71"/>
					<path id="path618" class="st1" d="M1204.29,349.83c0.51,8.18,3.83,10.77,13.12,11.73"/>
					<path id="path619" class="st1" d="M1222.71,285.14c-7.9-2.18-11.43,0.12-15.35,8.59"/>
					<path id="path622" class="st1" d="M1232.19,326.96c0,0-10.69-7.32-16.93,4.11c-6.24,11.44,4.54,12.47,4.54,12.47"/>
					<path id="path623" class="st1" d="M1221.03,325.88c0,0,5.57-17.99-4.06-22.4"/>
				</g>
				<g id="g628" transform="matrix(-1,0,0,1,1293.8178,0)">
					<path id="path624" class="st1" d="M5.81,304.95c0,0-3.12-17.73,6.27-22.52c6.27-3.2,14.94-0.65,14.94-0.65
						s1.57-19.66,23.33-14.2l-0.29,103.97c0,0-20.49,3.61-27.44-10.03C4.47,358.18,2.77,341.86,6.3,337.16
						C-5.03,324.82-1.79,314,1.63,308.4s20.62-6.46,20.2,3.66c-0.55,13.08-11.15,9.31-12.34,4.71"/>
					<path id="path625" class="st1" d="M21.03,349.83c0.51,8.18,3.83,10.77,13.12,11.73"/>
					<path id="path626" class="st1" d="M39.46,285.14c-7.9-2.18-11.43,0.12-15.35,8.59"/>
					<path id="path627" class="st1" d="M48.94,326.96c0,0-10.69-7.32-16.93,4.11s4.54,12.47,4.54,12.47"/>
					<path id="path628" class="st1" d="M37.77,325.88c0,0,5.57-17.99-4.06-22.4"/>
				</g>
			</g>
		</g>
		<path id="path629" class="st1" d="M899.98,121.88c-17.51,0-31.71,14.2-31.71,31.71c0.01,11.48,6.21,21.93,15.98,27.51
			c2.22,1.27,4.17,4.06,4.17,6.62v3.37c0,3.21,2.6,5.81,5.81,5.81l0,0h11.52c3.21,0,5.81-2.6,5.81-5.81l0,0v-3.37
			c0-2.55,1.95-5.35,4.17-6.62c9.77-5.58,15.97-16.03,15.98-27.51C931.69,136.07,917.5,121.88,899.98,121.88L899.98,121.88z"/>
		<path id="path630" class="st1" d="M889.65,202.34h20.66"/>
		<path id="path631" class="st1" d="M889.65,207.47h20.66"/>
		<path id="path632" class="st1" d="M889.65,212.59h20.66"/>
	</g>
	<g id="g648" transform="matrix(0.70913681,0,0,0.70768916,131.956,175.56824)">
		<path id="path633" class="st1" d="M1149.43,189.7c-2.51,0.01-5.01,0.32-7.44,0.94v5.94c-1.39,0.44-2.74,1-4.04,1.67l-4.2-4.2
			c-4.32,2.59-7.93,6.2-10.52,10.52l4.2,4.2c-0.68,1.29-1.24,2.65-1.67,4.04h-5.94c-0.62,2.43-0.93,4.93-0.94,7.44
			c0.01,2.51,0.32,5.01,0.94,7.44h5.94c0.44,1.39,1,2.74,1.67,4.04l-4.2,4.2c2.59,4.32,6.2,7.93,10.52,10.52l4.2-4.2
			c1.29,0.68,2.65,1.24,4.04,1.67v5.94c2.43,0.62,4.93,0.93,7.44,0.94c2.51-0.01,5.01-0.32,7.44-0.94v-5.94
			c1.39-0.44,2.74-1,4.04-1.67l4.2,4.2c4.32-2.59,7.93-6.2,10.52-10.52l-4.2-4.2c0.68-1.29,1.23-2.65,1.67-4.04h5.94
			c0.62-2.43,0.93-4.93,0.94-7.44c0-2.51-0.31-5.01-0.92-7.44h-5.93c-0.44-1.4-1-2.76-1.68-4.06l4.19-4.19
			c-2.59-4.32-6.2-7.93-10.52-10.52l-4.19,4.19c-1.3-0.68-2.66-1.24-4.05-1.68v-5.93C1154.44,190.01,1151.94,189.7,1149.43,189.7z
			 M1149.43,204.47c8.71,0,15.78,7.06,15.78,15.78c0,0,0,0,0,0c0,8.71-7.06,15.78-15.78,15.78c-8.71,0-15.78-7.06-15.78-15.78
			c0,0,0,0,0,0C1133.65,211.54,1140.72,204.47,1149.43,204.47C1149.43,204.47,1149.43,204.47,1149.43,204.47z"/>
		<g id="g641">
			<path id="path636" class="st1" d="M1149.45,181.15c0,0,0-9.27,0-17c0-7.73-11.93-11.15-19.44-2.81
				c-7.51,8.33-3.53,15.42-3.53,15.42"/>
			<path id="path637" class="st1" d="M1125.41,167.89c0,0-5.67-4.15-12.03,0.99c-6.36,5.14-3.23,14.56-3.23,14.56"/>
			<path id="path638" class="st1" d="M1116.99,182.03c0,0-7.37-2.06-14,5.1c-6.62,7.17-4.05,14.5-1.71,18.33
				c0,0-9.08,2.23-8.65,12.85c0.43,10.62,11.62,12.98,11.62,12.98"/>
			<path id="path639" class="st1" d="M1096.05,227.2c0,0-6.32,9.42-0.56,19.12c5.76,9.7,15.33,8.18,15.33,8.18"/>
			<path id="path640" class="st1" d="M1103.85,254.37c0,0,0.41,11.52,9.65,16.55c9.23,5.03,16.87,0.17,16.87,0.17"/>
			<path id="path641" class="st1" d="M1127.36,266.49c0,0,5.42,7.21,14.45,9.34c9.03,2.14,7.52-5.87,7.52-5.87"/>
		</g>
		<g id="g647" transform="matrix(-1,0,0,1,1358.4537,0)">
			<path id="path642" class="st1" d="M208.76,181.15c0,0,0-9.27,0-17c0-7.73-11.93-11.15-19.44-2.81
				c-7.51,8.33-3.53,15.42-3.53,15.42"/>
			<path id="path643" class="st1" d="M184.72,167.89c0,0-5.67-4.15-12.03,0.99c-6.36,5.14-3.23,14.56-3.23,14.56"/>
			<path id="path644" class="st1" d="M176.29,182.03c0,0-7.37-2.06-14,5.1c-6.62,7.17-4.05,14.5-1.71,18.33
				c0,0-9.08,2.23-8.65,12.85c0.43,10.62,11.62,12.98,11.62,12.98"/>
			<path id="path645" class="st1" d="M155.35,227.2c0,0-6.32,9.42-0.56,19.12c5.76,9.7,15.33,8.18,15.33,8.18"/>
			<path id="path646" class="st1" d="M163.16,254.37c0,0,0.41,11.52,9.65,16.55c9.23,5.03,16.87,0.17,16.87,0.17"/>
			<path id="path647" class="st1" d="M186.67,266.49c0,0,5.42,7.21,14.45,9.34c9.03,2.14,7.52-5.87,7.52-5.87"/>
		</g>
	</g>
	<g id="g677" transform="matrix(1.0381528,0,0,1.0327701,-133.89118,190.7261)">
		<path id="rect664" class="st1" d="M1160.61,92.7h-49.52v84.18h68.85v-66.44L1160.61,92.7z"/>
		<path id="path664" class="st1" d="M1179.94,110.43l-19.33-17.73v18.16L1179.94,110.43z"/>
		<g>
			<path id="path666" class="st1" d="M1130.98,119.99c-6.3,0.78-12.05,10.41-7.1,14.62"/>
			<path id="path667" class="st1" d="M1127.67,132.01c-4.57,2.12-6.37,8.94-2.96,12.58"/>
			<path id="path668" class="st1" d="M1123.25,141.84c-7.25,3.4-3.92,13.22,1.26,16.9c1.56,1.1,3.73,0.65,5.52,1"/>
			<path id="path669" class="st1" d="M1129.53,154.33c-1.62,6.71,3.66,9.97,9.45,7.99"/>
			<path id="path670" class="st1" d="M1132.64,162.83c0.27,6.83,8.43,9.43,13,4.51v-51.24c-1.22-2.98-2.59-3.77-3.73-4.63
				c-3.44-2.61-8.81-0.7-10.5,3.09c-1.8,4.05,0.58,9.49,5.29,8.08"/>
			<path id="path671" class="st1" d="M1145.63,142.87c-2.55-4.2-8.52-5.34-12.02-1.74"/>
			<path id="path672" class="st1" d="M1160.35,119.99c6.3,0.78,12.05,10.41,7.1,14.62"/>
			<path id="path673" class="st1" d="M1163.65,132.01c4.57,2.12,6.37,8.94,2.96,12.58"/>
			<path id="path674" class="st1" d="M1168.07,141.84c7.25,3.4,3.92,13.22-1.26,16.9c-1.56,1.1-3.73,0.65-5.52,1"/>
			<path id="path675" class="st1" d="M1161.79,154.33c1.62,6.71-3.66,9.97-9.45,7.99"/>
			<path id="path676" class="st1" d="M1158.69,162.83c-0.27,6.83-8.43,9.43-13,4.51v-51.24c1.22-2.98,2.59-3.77,3.73-4.63
				c3.44-2.61,8.81-0.7,10.5,3.09c1.8,4.05-0.58,9.49-5.29,8.08"/>
			<path id="path677" class="st1" d="M1145.7,142.87c2.55-4.2,8.52-5.34,12.02-1.74"/>
		</g>
	</g>
	<g id="g34" transform="translate(-7.6562133,85.578895)">
		<path id="path1" class="st1" d="M918.33,137.19c0,0,3.49-29.34,22.63-40.59c11.44-6.72,31.9-8.46,42.63,3.02
			c10.73,11.48,9.06,30.45,2.25,40.55c-5.17,7.66-12.25,12.31-15.37,14.11c-0.96,0.56-1.52,1.61-1.45,2.72l0.71,9.91l-31.58,1.37
			l-0.43-9.7c0,0-3.36,0.86-7.41-1.48c-4.05-2.35-2.7-18.72-2.7-18.72L918.33,137.19z"/>
		<path id="path2" class="st1" d="M958.14,99.88c0,0-0.17-3.65-6.13-2.55c-5.96,1.1-9.05,3.21-8.45,6.51
			c0.6,3.3,0.78,6.46,5.19,5.78c4.41-0.68,3.91-5.16,3.91-5.16"/>
		<path id="path3" class="st1" d="M943.29,103.71c0,0-6.33,2.6-6.09,7.76c0.24,5.16,3.13,9.12,9,8.21"/>
		<path id="path17" class="st1" d="M946.5,116.48c0,0-2.2,6.01,3.41,7.84c5.61,1.83,8.43,1.11,11-1.47
			c2.57-2.59,1.38-5.98,1.38-5.98"/>
		<path id="path18" class="st1" d="M956.83,115.04c0,0,4.42,4.01,8.81-0.41"/>
		<path id="path19" class="st1" d="M962.27,122.39c0,0,3.65,6.4,10.88,3.44c7.23-2.96,9.23-7.51,7.21-11.85
			c-2.03-4.34-8.12-2.64-7.99,2.32"/>
		<path id="path20" class="st1" d="M980.58,114.04c0,0,1.79-8.89-1.46-12.21c-3.25-3.32-7.84-1.1-9.08,1.68
			c-1.23,2.79-0.97,5.49-0.97,5.49"/>
		<path id="path33" class="st1" d="M972.59,100.84c0,0-7.86-8.47-14.58-0.8"/>
	</g>
	<g id="g176" transform="translate(-2.3888944,125.06237)">
		<g id="g42" transform="translate(-5.2723116,-41.09015)">
			<path id="path34" class="st1" d="M1055.85,104.12V93.2c0,0-3.55-5.72-9.06-4.56s-6.51,6.02-5.18,9.21
				c-7.23-3.22-14.84,3.55-11.6,10.55c-9.66-0.47-8.91,9.81-6.02,13.36c-9.97,3.56-9.03,22.05,0.62,26.46
				c-3.27,10.88,7.24,13.27,7.24,13.27c-0.9,0.35-1.04,11.75,9.53,10.06c8.05,6.64,14.47-0.92,14.47-5.59v-25.13l-17.1-17.68"/>
			<path id="path35" class="st1" d="M1031.64,161.79l8.73-8.94V140.9"/>
			<path id="path36" class="st1" d="M1041.19,171.14l8.02-8.02v-11.62"/>
			<path id="path37" class="st1" d="M1024.37,121.64l8.73,8.94v11.94"/>
			<path id="path38" class="st1" d="M1047.29,117.21l-8.94-8.73h-7.89"/>
			<path id="circle39" class="st1" d="M1049.69,116.57c1.87,0,3.38,1.51,3.38,3.38c0,1.87-1.51,3.38-3.38,3.38
				c-1.87,0-3.38-1.51-3.38-3.38C1046.31,118.09,1047.83,116.57,1049.69,116.57z"/>
			<path id="circle40" class="st1" d="M1040.36,133.22c1.87,0,3.38,1.51,3.38,3.38c0,1.87-1.51,3.38-3.38,3.38
				c-1.87,0-3.38-1.51-3.38-3.38C1036.98,134.73,1038.49,133.22,1040.36,133.22z"/>
			<path id="circle41" class="st1" d="M1049.06,144.13c1.87,0,3.38,1.51,3.38,3.38s-1.51,3.38-3.38,3.38
				c-1.87,0-3.38-1.51-3.38-3.38S1047.19,144.13,1049.06,144.13z"/>
			<path id="path39" class="st1" d="M1032.65,143.34c1.87,0,3.38,1.51,3.38,3.38s-1.51,3.38-3.38,3.38c-1.87,0-3.38-1.51-3.38-3.38
				S1030.78,143.34,1032.65,143.34z"/>
			<path id="circle42" class="st1" d="M1035.34,116.64c1.87,0,3.38,1.51,3.38,3.38c0,1.87-1.51,3.38-3.38,3.38
				c-1.87,0-3.38-1.51-3.38-3.38C1031.95,118.15,1033.47,116.64,1035.34,116.64z"/>
		</g>
		<g id="g50" transform="matrix(-1,0,0,1,1308.5717,-41.09015)">
			<path id="path42" class="st1" d="M257.99,104.12V93.2c0,0-3.55-5.72-9.06-4.56c-5.52,1.16-6.51,6.02-5.18,9.21
				c-7.23-3.22-14.84,3.55-11.6,10.55c-9.66-0.47-8.91,9.81-6.02,13.36c-9.97,3.56-9.03,22.05,0.62,26.46
				c-3.26,10.88,7.24,13.27,7.24,13.27c-0.9,0.35-1.04,11.75,9.53,10.06c8.05,6.64,14.47-0.92,14.47-5.59v-25.13l-17.1-17.68"/>
			<path id="path43" class="st1" d="M233.79,161.79l8.73-8.94V140.9"/>
			<path id="path44" class="st1" d="M243.34,171.14l8.02-8.02v-11.62"/>
			<path id="path45" class="st1" d="M226.51,121.64l8.73,8.94v11.94"/>
			<path id="path46" class="st1" d="M249.43,117.21l-8.94-8.73h-7.89"/>
			<path id="circle46" class="st1" d="M251.84,116.57c1.87,0,3.38,1.51,3.38,3.38c0,1.87-1.51,3.38-3.38,3.38
				c-1.87,0-3.38-1.51-3.38-3.38C248.46,118.09,249.97,116.57,251.84,116.57z"/>
			<path id="circle47" class="st1" d="M242.5,133.22c1.87,0,3.38,1.51,3.38,3.38c0,1.87-1.51,3.38-3.38,3.38
				c-1.87,0-3.38-1.51-3.38-3.38C239.12,134.73,240.64,133.22,242.5,133.22z"/>
			<path id="circle48" class="st1" d="M251.2,144.13c1.87,0,3.38,1.51,3.38,3.38s-1.51,3.38-3.38,3.38c-1.87,0-3.38-1.51-3.38-3.38
				S249.33,144.13,251.2,144.13z"/>
			<path id="circle49" class="st1" d="M234.79,143.34c1.87,0,3.38,1.51,3.38,3.38s-1.51,3.38-3.38,3.38c-1.87,0-3.38-1.51-3.38-3.38
				S232.92,143.34,234.79,143.34z"/>
			<path id="circle50" class="st1" d="M237.48,116.64c1.87,0,3.38,1.51,3.38,3.38c0,1.87-1.51,3.38-3.38,3.38
				c-1.87,0-3.38-1.51-3.38-3.38C234.1,118.15,235.61,116.64,237.48,116.64z"/>
		</g>
	</g>
	<path id="path52" class="st1" d="M1123.22,323.15v14.64h6.08v-21.93v-12.35h6.08v19.64v21.95h6.08v-29.24V298.3h6.08v24.85v25.29
		h6.08v-32.58v-19.34h6.08v26.63v30.62h6.08v-37.91V295.5h6.08v27.66v41.17h6.08v-48.46v-18.54h6.08v25.83v44.23h6.08v-51.52v-14.64
		h6.08v21.93v30.62h6.08v-37.91v-6.64h6.08v13.93v19.62h6.08"/>
	<g id="g175" transform="matrix(0.86989446,0,0,0.86867357,87.102093,135.69409)">
		<g id="g144">
			<path id="path75" class="st1" d="M1214.54,323.63l20.43-6.93"/>
			<path id="path76" class="st1" d="M1241.92,315.77l19.56-0.73"/>
			<path id="path77" class="st1" d="M1268.24,315.04l14.93,10.15"/>
			<path id="path78" class="st1" d="M1288.49,329.3l13.98,19.12"/>
			<path id="path79" class="st1" d="M1306.15,354.03l-2.88,19.2"/>
			<path id="path80" class="st1" d="M1300.14,379.01l-12.52,9.29"/>
			<path id="path81" class="st1" d="M1281.46,390.25l-10.84-1.91"/>
			<path id="path94" class="st1" d="M1263.51,376.77l3.73,8.18"/>
			<path id="path95" class="st1" d="M1258.69,374.65l-18.03,4.6"/>
			<path id="path102" class="st1" d="M1233.9,379.25l-21.36-5.44"/>
			<path id="path103" class="st1" d="M1206.65,370.52l-8.77-14.66"/>
			<path id="path104" class="st1" d="M1197.87,349.09l11.42-20.84"/>
			<path id="path105" class="st1" d="M1214.04,328.66l13.98,11.11"/>
			<path id="path106" class="st1" d="M1232.69,337.98l5.96-18.83l22.6,14.04l3.1-14.2"/>
			<path id="path107" class="st1" d="M1266.11,334.39l17.65-4.3l0.03,22.78"/>
			<path id="path108" class="st1" d="M1287.15,355.56l14.34-2.93"/>
			<path id="path131" class="st1" d="M1285.96,359.73l13.42,14.99"/>
			<path id="path132" class="st1" d="M1283.07,360.4l0.94,26.64"/>
			<path id="path133" class="st1" d="M1269.11,385.32l12.11-24.76"/>
			<path id="path134" class="st1" d="M1262.7,370.48l16.75-13.22l-16.26-17.17l-12.68,19.09L1262.7,370.48z"/>
			<path id="path135" class="st1" d="M1250.99,359.11l28.91-2.16"/>
			<path id="path136" class="st1" d="M1258.85,337.21l-24.29,4.16"/>
			<path id="path137" class="st1" d="M1233.13,345.01l10.42,11.5l0.74,0.36"/>
			<path id="path138" class="st1" d="M1223.43,358.42l19.76,0.64"/>
			<path id="path139" class="st1" d="M1244.52,361.87l-5.82,13.56"/>
			<path id="path140" class="st1" d="M1218,360.84l-6.46,8.6"/>
			<path id="path141" class="st1" d="M1220.71,360.71l14.44,15.4"/>
			<path id="path142" class="st1" d="M1201.04,353.09l14.93,3.46"/>
			<path id="path143" class="st1" d="M1228.32,343.59l-6.94,10.73"/>
			<path id="path144" class="st1" d="M1218.07,353.94l-6.69-24.7"/>
		</g>
		<ellipse id="circle59" class="st1" cx="1238.54" cy="315.77" rx="2.94" ry="2.94"/>
		<ellipse id="circle60" class="st1" cx="1264.86" cy="315.04" rx="2.94" ry="2.94"/>
		<path id="circle61" class="st1" d="M1286.08,323.53c1.87,0,3.38,1.51,3.38,3.38c0,1.87-1.51,3.38-3.38,3.38s-3.38-1.51-3.38-3.38
			C1282.7,325.05,1284.22,323.53,1286.08,323.53z"/>
		<ellipse id="circle62" class="st1" cx="1304.66" cy="350.99" rx="2.94" ry="2.94"/>
		<path id="circle63" class="st1" d="M1302.39,373.11c1.87,0,3.38,1.51,3.38,3.38c0,1.87-1.51,3.38-3.38,3.38s-3.38-1.51-3.38-3.38
			C1299.01,374.62,1300.52,373.11,1302.39,373.11z"/>
		<path id="circle64" class="st1" d="M1284.85,386.86c1.87,0,3.38,1.51,3.38,3.38c0,1.87-1.51,3.38-3.38,3.38s-3.38-1.51-3.38-3.38
			C1281.46,388.38,1282.98,386.86,1284.85,386.86z"/>
		<path id="circle65" class="st1" d="M1267.25,384.95c1.87,0,3.38,1.51,3.38,3.38c0,1.87-1.51,3.38-3.38,3.38
			c-1.87,0-3.38-1.51-3.38-3.38C1263.86,386.46,1265.38,384.95,1267.25,384.95z"/>
		<path id="circle66" class="st1" d="M1261.95,370.39c1.87,0,3.38,1.51,3.38,3.38c0,1.87-1.51,3.38-3.38,3.38
			c-1.87,0-3.38-1.51-3.38-3.38C1258.57,371.9,1260.09,370.39,1261.95,370.39z"/>
		<path id="circle67" class="st1" d="M1237.28,375.87c1.87,0,3.38,1.51,3.38,3.38c0,1.87-1.51,3.38-3.38,3.38s-3.38-1.51-3.38-3.38
			C1233.9,377.38,1235.41,375.87,1237.28,375.87z"/>
		<ellipse id="circle68" class="st1" cx="1209.47" cy="372.38" rx="2.94" ry="2.94"/>
		<path id="circle69" class="st1" d="M1197.87,349.09c1.87,0,3.38,1.51,3.38,3.38c0,1.87-1.51,3.38-3.38,3.38s-3.38-1.51-3.38-3.38
			C1194.49,350.61,1196,349.09,1197.87,349.09z"/>
		<path id="circle70" class="st1" d="M1211.34,322.18c1.87,0,3.38,1.51,3.38,3.38c0,1.87-1.51,3.38-3.38,3.38
			c-1.87,0-3.38-1.51-3.38-3.38C1207.96,323.7,1209.48,322.18,1211.34,322.18z"/>
		<path id="circle71" class="st1" d="M1230.97,338.28c1.87,0,3.38,1.51,3.38,3.38c0,1.87-1.51,3.38-3.38,3.38s-3.38-1.51-3.38-3.38
			C1227.59,339.8,1229.1,338.28,1230.97,338.28z"/>
		<path id="circle72" class="st1" d="M1262.8,332.99c1.87,0,3.38,1.51,3.38,3.38c0,1.87-1.51,3.38-3.38,3.38s-3.38-1.51-3.38-3.38
			C1259.42,334.51,1260.93,332.99,1262.8,332.99z"/>
		<path id="circle73" class="st1" d="M1283.5,353.54c1.87,0,3.38,1.51,3.38,3.38c0,1.87-1.51,3.38-3.38,3.38
			c-1.87,0-3.38-1.51-3.38-3.38C1280.11,355.05,1281.63,353.54,1283.5,353.54z"/>
		<path id="circle74" class="st1" d="M1246.75,355.98c1.87,0,3.38,1.51,3.38,3.38c0,1.87-1.51,3.38-3.38,3.38s-3.38-1.51-3.38-3.38
			C1243.37,357.49,1244.89,355.98,1246.75,355.98z"/>
		<path id="circle42-5" class="st1" d="M1219.56,353.99c1.87,0,3.38,1.51,3.38,3.38c0,1.87-1.51,3.38-3.38,3.38
			s-3.38-1.51-3.38-3.38C1216.18,355.5,1217.7,353.99,1219.56,353.99z"/>
	</g>
	<g id="g157" transform="translate(3.730905,129.2047)">
		<g id="g146" transform="translate(-0.86596852,-0.62253991)">
			<path id="rect144" class="st1" d="M1055.22,314.62v-6.61c0-4.38,3.56-7.91,7.97-7.91c4.42,0,7.97,3.53,7.97,7.91v6.61"/>
			<path id="rect145" class="st1" d="M1053.61,315.28h19.18c1.29,0,2.34,1.05,2.34,2.34v14.75c0,1.29-1.05,2.34-2.34,2.34h-19.18
				c-1.29,0-2.34-1.05-2.34-2.34v-14.75C1051.27,316.33,1052.32,315.28,1053.61,315.28z"/>
			<path id="path145" class="st1" d="M1063.19,320.74c1.38,0,2.49,1.12,2.49,2.49c0,1.38-1.12,2.49-2.49,2.49
				c-1.38,0-2.49-1.12-2.49-2.49C1060.7,321.86,1061.82,320.74,1063.19,320.74z"/>
			<path id="path146" class="st1" d="M1063.04,325.81v5.03"/>
		</g>
		<path id="path147" class="st1" d="M1050.54,291.44c-4.97-4.69-14.56-1.58-15.35,4.35c-9.51-1.63-17.56,5.65-17.66,11.15
			c-11.5,1.62-12.78,14.22-8.39,19.23c4.39,5.01,10.24,4.73,10.24,4.73s-0.15,6.29,6.23,8.69c6.38,2.4,12.33,0.13,12.33,0.13
			c6.33,7.89,15.85,7.86,19.75,3.44c0,0,5.83,6.2,17.18,3.27c2.5,8.91,5.09,11.24,9.74,10.49c4.65-0.75,6.02-5.4,6.89-9.78
			c7.32-3.58,11.6-12.05,8.48-18.37c4.63-9.98-0.88-18.27-7.51-19.66c2.38-11.43-7.92-15.46-13.04-13.83
			c0.62-10.02-11.77-9.4-13.74-4.99C1063.38,281.85,1049.88,283.59,1050.54,291.44L1050.54,291.44z"/>
		<path id="path148" class="st1" d="M1017.54,307.1c2.14,0.97,3.18,3.04,3.69,5.07"/>
		<path id="path149" class="st1" d="M1016.64,315.67c2.69-4.16,9.43-5.36,13.8-3.25c1.11,0.53,1.77,1.55,2.69,2.12"/>
		<path id="path150" class="st1" d="M1025.12,321.88c2.12,5.31,8.88,5.4,13.39,3.14c0.86-0.43,1.78-1.8,2.38-2"/>
		<path id="path151" class="st1" d="M1038.19,339c0.18-1.65,0.85-4.13-0.07-5.64"/>
		<path id="path152" class="st1" d="M1074.73,345.99c0.12-2.28,1.42-4.66,3.18-6.09"/>
		<path id="path153" class="st1" d="M1090.97,346.19c-1.33-2.43-3.23-4.84-3.56-7.7c-0.34-2.96,1.79-6.34,4.7-5.37"/>
		<path id="path154" class="st1" d="M1099.13,327.98c-6.26-4.31-13.49-2.78-18.07,2.6"/>
		<path id="path155" class="st1" d="M1091.9,308.81c-3.42,2.96-8.6,6.01-11.86,1.39c-2.82-3.99-0.76-5.75,2.67-7.91"/>
		<path id="path156" class="st1" d="M1059.25,293.33c3.77-2.41,9.13-2.14,12.43,0.84"/>
		<path id="path157" class="st1" d="M1031.6,301.87c0.78-3.42,7.01-7.09,11.27-5.32"/>
	</g>
	<g id="g174" transform="translate(-36.096068,125.06237)">
		<path id="path158" class="st1" d="M863.26,295.53c-1.86,0.03-3.9,0.38-6.11,1.19v28.15c0,0,11.52-3.37,19.84,4.86
			c8.32-8.23,19.84-4.86,19.84-4.86v-28.15c-12.88-4.73-19.84,6.16-19.84,6.16S872.21,295.41,863.26,295.53z"/>
		<g id="g171" transform="matrix(0.95033359,0,0,0.94992657,-5.6239032,6.1241759)">
			<g id="g160" transform="translate(-0.86596852,-0.62253991)">
			</g>
			<path id="path161" class="st1" d="M921.74,296.3c-5.64-6.21-17.41-1.34-18.2,4.59c-9.51-1.63-14.71,5.41-14.8,10.91
				c-11.5,1.62-12.78,14.22-8.39,19.23c4.39,5.01,10.24,4.73,10.24,4.73s-0.15,6.29,6.23,8.69c6.38,2.4,11.94,1.51,11.94,1.51
				c6.33,7.89,16.24,6.47,20.13,2.06c3.44,8.38,10.52,12.95,19.86,12.23c5.25-0.4,11.9-4.52,12.76-8.89
				c7.32-3.58,12.78-11.4,9.67-17.73c4.63-9.98-0.88-18.27-7.51-19.66c2.38-11.43-7.92-15.46-13.04-13.83
				c0.62-10.02-11.77-9.4-13.74-4.99C934.59,286.7,921.09,288.44,921.74,296.3L921.74,296.3z"/>
			<path id="path172" class="st1" d="M961.41,351.21c0,0-3.98-7.04-9.11-6.01c-2.78,0.56-4.97,2.94-8.48,2.36
				c-2.55-0.42-3.92-3.26-3.92-3.26"/>
			<path id="path173" class="st1" d="M971.14,333.75c0,0-10.67-1.04-11.77-6.69"/>
			<path id="path174" class="st1" d="M890.7,335.81c0,0,8.89-2.99,7.25-9.62c-1.42-5.76-8.93-5.32-11.23-1.93"/>
		</g>
		<path id="path171" class="st1" d="M876.99,302.26v26.32"/>
	</g>
	<g id="g178" transform="translate(-2.3888944,125.06237)">
		<path id="path175" class="st1" d="M907.01,306.08c0,0-8.82-0.79-8.16,7.1c0.68,8.13,9.59,5.85,9.59,5.85s-2.34,5.91,2.78,8.52
			c5.12,2.61,8.68-2.02,8.68-2.02s-1.07,5.03,5.49,6.81c6.56,1.77,10.16-2.48,10.16-2.48s1.89,6.01,8.94,7.27
			c7.04,1.25,8.75-3.75,8.75-3.75s0.14,10.64,10.83,6.38c0.79,8.64,9.75,8.52,12.64,4.4c7.24,1.95,12.49-10.2,10.31-13.37
			c5.34-6.01-0.64-10.92-0.64-10.92s5.64-5.78,2.31-10.49c-3.33-4.7-7.03-4.64-7.03-4.64s3.7-10.33-6.93-10.69
			c1.63-8.37-8-12.71-11.97-9.43c-3.38-8.89-14.65-6.14-16.41-1.31c-6.85-5.21-14.72-2.83-14.99,2.52
			c-7.5-2.81-14.79,1.73-14.56,9.13C910.63,292.55,904.65,300.63,907.01,306.08z"/>
		<path id="path177" class="st1" d="M946.79,283.4l0.02,12.06c0,0,5.51-6.34,9.44-2.73c3.93,3.61,4.09,10.67,1.12,12.74
			c-2.97,2.06-10.42-0.98-10.42-0.98l0.05,17.59c0,0-4.02-4.85-8.48-1.46c-4.46,3.39-3.59,10.76-3.59,10.76"/>
		<path id="path178" class="st1" d="M899.9,312.08h21.48c0,0-5.36-7.39-1.84-10.82c3.52-3.43,6.69-3.21,9.79-0.18
			c3.1,3.02-0.5,11.23-0.5,11.23h37.55c0,0-4.9,5.57-2.88,10.73c2.03,5.16,9.29,4.04,12.7,1.44c3.41-2.6-1.16-11.85-1.16-11.85
			h14.21"/>
	</g>
	<g id="g195" transform="translate(-2.3888944,125.06237)">
		<path id="path179" class="st1" d="M252.39-5.26c0,0-13.04-29-41.8-20.11c-32.67,10.1-28.57,37.22-28.57,37.22
			s-21.07-4.83-35.1,18.42c-14.04,23.25,0.51,42.67,0.51,42.67s-26.7,3.27-31.59,31.43c-3.83,22.11,14.29,37.12,14.29,37.12
			s-18.5,13.57-13.68,35.63c4.82,22.06,19.66,31.27,35.04,32.42c-6.36,32.2,22.93,49.31,42.17,44.55
			c11.53,29.45,49.69,29.51,58.71,5.51"/>
		<path id="path180" class="st1" d="M129.8,140.91c0,0,16.04-10.68,29.24-8.51"/>
		<path id="path181" class="st1" d="M173.93,109.32c0,0-17.37,5.49-13.91,26.19c3.46,20.69,17.95,21.58,17.95,21.58"/>
		<path id="path182" class="st1" d="M181.42,13.26c0,0,8.37,21.13,24.9,19.32c16.53-1.82,14.53-19.85,14.53-19.85"/>
		<path id="path183" class="st1" d="M150.14,209.19c0,0,22.42-24.9,40.28-17.99c17.86,6.91,8.24,26.94-4.74,33.94"/>
		<path id="path184" class="st1" d="M194.44,251.76c0,0,22.55-9.7,29.69-31.15c7.13-21.44,3.54-49.93-14.53-59.46"/>
		<path id="path185" class="st1" d="M145.57,74.05c0,0,33.98-1.77,53.13,11.34c19.14,13.12,16.31,38.55-9.26,43.86"/>
		<path id="path186" class="st1" d="M252.39-5.26c0,0,13.04-29,41.8-20.11c32.67,10.1,28.57,37.22,28.57,37.22
			s21.07-4.83,35.1,18.42c14.04,23.25-0.51,42.67-0.51,42.67s26.71,3.27,31.59,31.43c3.83,22.11-14.29,37.12-14.29,37.12
			s18.5,13.57,13.68,35.63c-4.82,22.06-19.66,31.27-35.04,32.42c6.36,32.2-22.93,49.31-42.17,44.55
			c-11.53,29.45-49.69,29.51-58.71,5.51"/>
		<path id="path187" class="st1" d="M374.98,140.91c0,0-16.04-10.68-29.24-8.51"/>
		<path id="path188" class="st1" d="M330.85,109.32c0,0,17.37,5.49,13.91,26.19c-3.46,20.69-17.95,21.58-17.95,21.58"/>
		<path id="path189" class="st1" d="M323.36,13.26c0,0-8.37,21.13-24.9,19.32c-16.53-1.82-14.53-19.85-14.53-19.85"/>
		<path id="path190" class="st1" d="M354.64,209.19c0,0-22.42-24.9-40.28-17.99c-17.86,6.91-8.24,26.94,4.74,33.94"/>
		<path id="path191" class="st1" d="M310.33,251.76c0,0-22.55-9.7-29.69-31.15c-7.13-21.44-3.54-49.93,14.53-59.46"/>
		<path id="path192" class="st1" d="M359.21,74.05c0,0-33.98-1.77-53.13,11.34c-19.14,13.12-16.3,38.55,9.26,43.86"/>
		<path id="path193" class="st1" d="M252.39-5.26V259.6"/>
		<path id="path194" class="st1" d="M252.39,72.16c0,0-33.75-0.91-69.61-21.4"/>
		<path id="path195" class="st1" d="M252,72.16c0,0,33.75-0.91,69.61-21.4"/>
	</g>
	<g id="g218" transform="matrix(0.99999999,0,0,-0.99999999,76.499912,419.97272)">
		<g id="g260" transform="matrix(0.89102947,0,0,0.89186045,22.214531,17.937409)">
			<path id="path205" class="st1" d="M954.78-203.35c0,0,3.84-8.53,12.3-5.92c9.61,2.97,8.41,10.95,8.41,10.95s6.2-1.42,10.33,5.42
				c4.13,6.84-0.15,12.55-0.15,12.55s7.86,0.96,9.29,9.24c1.13,6.5-4.2,10.92-4.2,10.92s5.44,3.99,4.02,10.48s-5.78,9.2-10.31,9.54
				c1.87,9.47-6.75,14.51-12.41,13.11c-3.39,8.66-14.62,8.68-17.27,1.62"/>
			<path id="path214" class="st1" d="M954.78-203.35v77.92"/>
			<path id="path218" class="st1" d="M977.39-185.67c-5.71,2.56-13.32-0.13-9.62-7.23c1.38-2.64,5.15-4.2,7.72-5.32"/>
			<path id="path233" class="st1" d="M985.68-180.65c-4.78,5.99-15.04,9.27-21.89,4.81"/>
			<path id="path234" class="st1" d="M955.28-159.09c3.31-3.84,10.1-4.75,15.88-3.42"/>
			<path id="path236" class="st1" d="M990.59-160.46c-3.2-0.52-7.31-0.31-10.81-0.81"/>
			<path id="path237" class="st1" d="M971.9-126.97c-11.49-7.1-11.86-19.34-1.92-23.46c5.29-2.19,11.02-2.24,13.57-1.95"/>
			<path id="path239" class="st1" d="M984.46-140.28c-3.55-1.97-7.87-1.72-11.25-1.6"/>
			<path id="path242" class="st1" d="M949.05-120.62v-86.5h-10.53c0,0,0.39,8.47-7.01,14.62c-7.4,6.15-19.27,14.81-19.29,36.18
				C912.19-134.94,928.91-120.62,949.05-120.62L949.05-120.62z"/>
			<path id="path253" class="st1" d="M939.51-214.29h30.16"/>
			<path id="path254" class="st1" d="M939.51-218.88h30.16"/>
			<path id="path259" class="st1" d="M939.51-223.47h30.16"/>
			<path id="path260" class="st1" d="M939.51-228.06h30.16"/>
			<path id="path261" class="st1" d="M944.15-206.26c0,0-0.88,18.53-4.62,26.48c-3.75,7.95-13.43,9.94-14.39,17.04
				c-0.97,7.1,3.54,12.89,10.18,7.6c6.64-5.29,2.75-7.66-1.26-6.81c-4.01,0.85-2.72,8.53,4.21,10.73
				c6.93,2.19,10.21-3.22,10.83-9.44"/>
		</g>
	</g>
	<g id="g365" transform="translate(-2.3888944,125.06237)">
		<g id="g304" transform="matrix(1,0,0,-1,78.300195,294.91035)">
			<path id="path262" class="st1" d="M987.68-173.21c0,0-3.84-8.53-12.3-5.92c-9.61,2.97-8.41,10.95-8.41,10.95
				s-6.2-1.42-10.33,5.42c-4.13,6.84,0.15,12.55,0.15,12.55s-7.86,0.96-9.29,9.24c-1.13,6.5,4.2,10.92,4.2,10.92
				s-5.44,3.99-4.02,10.48c1.42,6.49,5.78,9.2,10.31,9.54c-1.87,9.47,6.75,14.51,12.41,13.11c3.39,8.66,14.62,8.68,17.27,1.62"/>
			<path id="path288" class="st1" d="M987.68-173.21c0,0,3.84-8.53,12.3-5.92c9.61,2.97,8.41,10.95,8.41,10.95s6.2-1.42,10.33,5.42
				c4.13,6.84-0.15,12.55-0.15,12.55s7.86,0.96,9.29,9.24c1.13,6.5-4.2,10.92-4.2,10.92s5.44,3.99,4.02,10.48
				c-1.42,6.49-5.78,9.2-10.31,9.54c1.87,9.47-6.75,14.51-12.41,13.11c-3.39,8.66-14.62,8.68-17.27,1.62"/>
		</g>
		<path id="path304" class="st1" d="M1058.6,405.36l-8.3,28.2l16.5-4.18l-8.42,26.19l27.85-35.23l-17.49-0.09l9.29-15.96
			L1058.6,405.36z"/>
		<path id="path305" class="st1" d="M1036.06,405.24c3.3,0.68,5.43,4.38,5.53,6.91"/>
		<path id="path307" class="st1" d="M1035.25,444.68c3.59-1.31,6.82-3.37,7.96-7.09"/>
		<path id="path308" class="st1" d="M1096.75,445.06c-0.7-1.24-3.99-1.82-4.28-1.88"/>
		<path id="path309" class="st1" d="M1091.83,434.24c0.57,6.28,0.21,10.93-3.87,14.65"/>
		<path id="path310" class="st1" d="M1059.43,465.2c5.77,4.06,9.62,1.59,14.78-0.99"/>
		<path id="path311" class="st1" d="M1058.01,392.81c4.48-1.97,10.38-2.92,14.61,0.03"/>
		<path id="path335" class="st1" d="M1086.05,401.22c-6.26,6.99,4.25,16.49,11.2,13.75"/>
		<path id="path336" class="st1" d="M1065.32,447.3c-0.3,4.24-0.11,8.57,0.14,12.79c0.03,0.55,0.27,1.38,0.2,1.67"/>
		<path id="path365" class="st1" d="M1065.77,403.95c0.49-2.16-0.47-5.94,0.08-7.64"/>
	</g>
	<g id="g426" transform="translate(116.24775,125.06237)">
		<path id="path394" class="st1" d="M1061.68,391.5c0,0-3.84-8.53-12.3-5.92c-9.61,2.97-8.41,10.95-8.41,10.95s-6.2-1.42-10.33,5.42
			c-4.13,6.84,0.15,12.55,0.15,12.55s-7.86,0.96-9.29,9.24c-1.13,6.5,4.2,10.92,4.2,10.92s-5.44,3.99-4.02,10.48
			c1.42,6.49,5.78,9.2,10.31,9.54c-1.87,9.47,6.75,14.51,12.41,13.11c3.39,8.66,14.62,8.68,17.27,1.62"/>
		<path class="st1" d="M1029.49,448.13c2.29,8.25,10.77,9.24,10.77,9.24"/>
		<path id="path424" class="st1" d="M1061.68,391.5v77.92"/>
		<path class="st1" d="M1041.52,429.8c9.42-4.47,18.22,2.81,19.19,7.79"/>
		<path id="path426" class="st1" d="M1084.36,470.66h-6.86l-7.43-7.43v-67.58l9.43-9.43"/>
		<path id="path427" class="st1" d="M1070.44,418.47h9.81l12.23-12.23"/>
		<path id="ellipse429" class="st1" d="M1095.07,400.8c1.62,0,2.94,1.32,2.94,2.94c0,1.62-1.32,2.94-2.94,2.94
			c-1.62,0-2.94-1.32-2.94-2.94C1092.13,402.11,1093.45,400.8,1095.07,400.8z"/>
		<path id="ellipse430" class="st1" d="M1081.95,380.49c1.62,0,2.94,1.32,2.94,2.94c0,1.62-1.32,2.94-2.94,2.94
			s-2.94-1.32-2.94-2.94C1079.01,381.8,1080.32,380.49,1081.95,380.49z"/>
		<path id="ellipse431" class="st1" d="M1097.29,433.22c1.62,0,2.94,1.32,2.94,2.94c0,1.62-1.32,2.94-2.94,2.94
			c-1.62,0-2.94-1.32-2.94-2.94C1094.34,434.54,1095.66,433.22,1097.29,433.22z"/>
		<path id="ellipse432" class="st1" d="M1095.07,457.39c1.62,0,2.94,1.32,2.94,2.94c0,1.62-1.32,2.94-2.94,2.94
			c-1.62,0-2.94-1.32-2.94-2.94C1092.13,458.7,1093.45,457.39,1095.07,457.39z"/>
		<ellipse id="circle64-3" class="st1" cx="1088.18" cy="471.18" rx="2.94" ry="2.94"/>
		<path id="path428" class="st1" d="M1070.77,436.24h22.6"/>
		<path id="path429" class="st1" d="M1070.73,448.13h11.98l9.24,9.24"/>
	</g>
	<g id="g503">
		<g id="g457">
			<path id="path438" class="st1" d="M835.29,251.13c0,0-3.84,7.95-12.3,5.51c-9.61-2.77-8.41-10.2-8.41-10.2s-6.2,1.32-10.33-5.05
				c-4.13-6.37,0.15-11.69,0.15-11.69s-7.86-0.9-9.29-8.61c-1.13-6.06,4.2-10.17,4.2-10.17s-5.44-3.72-4.02-9.76
				c1.42-6.04,5.78-8.57,10.31-8.88c-1.87-8.82,6.75-13.51,12.41-12.21c3.39-8.07,14.62-8.09,17.27-1.51"/>
			<path id="path450" class="st1" d="M835.29,251.13c0,0,3.84,7.95,12.3,5.51c9.61-2.77,8.41-10.2,8.41-10.2s6.2,1.32,10.33-5.05
				c4.13-6.37-0.15-11.69-0.15-11.69s7.86-0.9,9.29-8.61c1.13-6.06-4.2-10.17-4.2-10.17s5.44-3.72,4.02-9.76
				c-1.42-6.04-5.78-8.57-10.31-8.88c1.87-8.82-6.75-13.51-12.41-12.21c-3.39-8.07-14.62-8.09-17.27-1.51"/>
		</g>
		<ellipse id="path457" class="st1" cx="835.29" cy="215.45" rx="23.17" ry="23.17"/>
		<path id="ellipse457" class="st1" d="M835.29,211.49c2.18,0,3.96,1.77,3.96,3.96s-1.77,3.96-3.96,3.96s-3.96-1.77-3.96-3.96
			S833.1,211.49,835.29,211.49z"/>
		<path id="rect457" class="st1" d="M831.33,215.45h-3.99l7.94-17.84l0,0l7.94,17.84h-3.99"/>
		<path id="path459" class="st1" d="M831.33,215.45h-3.99l7.95,17.84l7.94-17.84h-3.99"/>
		<path id="path495" class="st1" d="M805.61,192.27l5.09,3.92"/>
		<path id="path498" class="st1" d="M804.2,229.68c4.56-3.54,8.48,2.42,7.1,6.8c-0.23,0.72-1.26,1.82-1.59,2.28"/>
		<path id="path500" class="st1" d="M824.85,237.24c-2.47,3.14-2.42,6.96-1.23,10.54"/>
		<path id="path501" class="st1" d="M864.3,192.27l-5.09,3.92"/>
		<path id="path502" class="st1" d="M865.7,229.68c-4.56-3.54-8.48,2.42-7.1,6.8c0.23,0.72,1.26,1.82,1.59,2.28"/>
		<path id="path503" class="st1" d="M845.05,237.24c2.47,3.14,2.42,6.96,1.23,10.54"/>
	</g>
</g>
</svg>
