<svg id="Cadenas" xmlns="http://www.w3.org/2000/svg" width="150.135" height="188.879" viewBox="0 0 150.135 188.879">
  <g id="o" transform="translate(0)">
    <path id="Tracé_212" data-name="Tracé 212" d="M135.012,71.215V57.945a55.7,55.7,0,0,0-111.39,0v13.27A26.613,26.613,0,0,0,4.25,96.689v67.8a26.622,26.622,0,0,0,26.637,26.637h96.861a26.622,26.622,0,0,0,26.637-26.637v-67.8A26.613,26.613,0,0,0,135.012,71.215Zm-55.7-35.064a21.827,21.827,0,0,1,21.794,21.794V70.053H57.524V57.945A21.827,21.827,0,0,1,79.317,36.151Zm7.265,104.8v13.851a7.265,7.265,0,1,1-14.529,0V140.955a16.951,16.951,0,1,1,14.529,0Z" transform="translate(-4.25 -2.25)" fill="#afafaf"/>
  </g>
</svg>
