<svg xmlns="http://www.w3.org/2000/svg" width="90.585" height="125.696" viewBox="0 0 90.585 125.696">
  <path id="gas" d="M41.821-.03A2.556,2.556,0,0,0,39.7,2.011C35.777,20.6,27.8,34.175,20.627,46.833S6.969,71.324,6.969,86.238c0,19.408,12.756,32.193,29.75,38.306.255.1.442.3.707.393a2.565,2.565,0,0,0,2.433-4.474C35.5,117.1,29.733,109.169,29.733,102.879a38.412,38.412,0,0,1,3.375-16.092c1.55-3.788,3.454-8.252,5.181-13.737a31.932,31.932,0,0,1,6.358,15.071,2.565,2.565,0,0,0,4.867,1.021s8.723-18.26,7.928-39.719c14.3,15.1,19.948,29.75,19.86,41.839-.1,14.031-7.457,25.041-14.365,29.75a2.567,2.567,0,0,0,1.806,4.631C82.895,123,97.554,106.49,97.554,86c0-14.65-4.239-27.6-13.03-40.975S62.427,17.759,43.941.677A2.586,2.586,0,0,0,42.057-.03Zm1.727,7.457C60.1,22.921,72.455,35.931,80.285,47.853,88.654,60.589,92.373,72.314,92.373,86a34.9,34.9,0,0,1-18.682,31.242,43.49,43.49,0,0,0,8.792-25.982C82.59,76.21,75.281,58.4,56.5,40.867a2.566,2.566,0,0,0-4.239,2.277c2.384,16.1-1.658,28.563-4.553,36.03a31.6,31.6,0,0,0-8.87-13.266,2.57,2.57,0,0,0-4.16,1.334C32.8,74.885,30.39,79.821,28.32,84.9a44.265,44.265,0,0,0-3.768,17.976,23.859,23.859,0,0,0,3.768,12.167c-9.93-6.192-16.17-15.621-16.17-28.808,0-13.423,5.809-24.295,12.952-36.893C31.685,37.737,39.172,24.608,43.548,7.427Z" transform="translate(-6.969 0.032)" fill="rgba(182,70,148,0.18)"/>
</svg>
