<svg xmlns="http://www.w3.org/2000/svg" width="22.485" height="31.2" viewBox="0 0 22.485 31.2">
  <path id="gas" d="M15.62-.032a.634.634,0,0,0-.526.507C14.119,5.09,12.139,8.459,10.359,11.6s-3.39,6.079-3.39,9.781c0,4.818,3.166,7.991,7.385,9.508.063.024.11.076.175.1a.637.637,0,0,0,.6-1.111c-1.081-.835-2.513-2.8-2.513-4.364a9.534,9.534,0,0,1,.838-3.994c.385-.94.857-2.048,1.286-3.41a7.926,7.926,0,0,1,1.578,3.741.637.637,0,0,0,1.208.253A23.491,23.491,0,0,0,19.5,12.244c3.549,3.748,4.951,7.385,4.93,10.385a9.219,9.219,0,0,1-3.566,7.385.637.637,0,0,0,.448,1.15,9.812,9.812,0,0,0,8.144-9.84,17.85,17.85,0,0,0-3.234-10.171C24.037,7.833,20.734,4.384,16.146.144a.642.642,0,0,0-.468-.175Zm.429,1.851c4.109,3.846,7.175,7.075,9.119,10.034a16.4,16.4,0,0,1,3,9.469,8.662,8.662,0,0,1-4.637,7.755,10.8,10.8,0,0,0,2.182-6.449c.027-3.736-1.788-8.157-6.449-12.509a.637.637,0,0,0-1.052.565,17.117,17.117,0,0,1-1.13,8.943,7.843,7.843,0,0,0-2.2-3.293.638.638,0,0,0-1.033.331,27.521,27.521,0,0,1-1.578,4.384,10.987,10.987,0,0,0-.935,4.462,5.922,5.922,0,0,0,.935,3.02,8.031,8.031,0,0,1-4.014-7.151c0-3.332,1.442-6.03,3.215-9.158A40.689,40.689,0,0,0,16.048,1.819Z" transform="translate(-6.969 0.032)" fill="#e5e5e5"/>
</svg>
