<svg xmlns="http://www.w3.org/2000/svg" width="235.443" height="241.408" viewBox="0 0 235.443 241.408">
  <g id="Groupe_54" data-name="Groupe 54" transform="translate(1755.327 -1226.463)">
    <g id="Groupe_43" data-name="Groupe 43" transform="translate(-1755.327 1226.463)">
      <path id="Tracé_859" data-name="Tracé 859" d="M-575.438-55.87H-675.792L-691.6-65.5l96.105.169Z" transform="translate(767.911 295.902)" fill="#8d8d8d" fill-rule="evenodd"/>
      <path id="Tracé_860" data-name="Tracé 860" d="M-893.84-730.716c51.456-.7,107.376,69.46,118.382,116.5,5.406,23.049,6.444,43.274-17.932,52.856-14.264,5.623-29.565-.386-41.922-8.616l-102.067-.193-23.773-1.014c-23.652-1.134-36.178-1.086-42.429-12.309-23.435-41.995,58.238-146.5,109.742-147.223Z" transform="translate(1007.73 800.573)" fill="#d4d4d4" fill-rule="evenodd"/>
      <path id="Tracé_861" data-name="Tracé 861" d="M-417.5-704.8c41.971,18.125,80.852,71.85,89.806,110.248,5.406,23.049,6.444,43.274-17.932,52.856-14.264,5.623-29.565-.386-41.922-8.616h-.145l-28.286-26.862,24.328-38.085c-.652-32.775-25.7-89.2-25.849-89.541Z" transform="translate(559.965 780.908)" fill="#8d8d8d" fill-rule="evenodd"/>
      <path id="Tracé_862" data-name="Tracé 862" d="M-953-547.995l-8.23-.362c-23.652-1.134-36.178-1.086-42.429-12.309C-1023.428-596.1-968.3-676.079-919.7-700.6c-.048.072-26.838,34.1-29.541,67.192l-3.307,27.176-.145,1.279,16.026,4.368Z" transform="translate(1007.785 777.721)" fill="#8d8d8d" fill-rule="evenodd"/>
      <path id="Tracé_863" data-name="Tracé 863" d="M-822.04-312.155a.588.588,0,0,1,.459.652.567.567,0,0,1-.676.459l-20.008-3.669a.568.568,0,0,1-.459-.652.556.556,0,0,1,.652-.459Z" transform="translate(882.566 485.816)" fill="#462544"/>
      <path id="Tracé_864" data-name="Tracé 864" d="M-661.8-555.5l44.843,8.158,44.891-8.158v64.175l-44.674,8.109v.048l-.217-.024-.193.024v-.048l-44.65-8.109Z" transform="translate(745.303 667.641)" fill="#fff" fill-rule="evenodd"/>
      <path id="Tracé_865" data-name="Tracé 865" d="M-777.106-472.123a.6.6,0,0,1,.652-.483.564.564,0,0,1,.483.652l-4.9,40.329a.538.538,0,0,1-.628.483.557.557,0,0,1-.507-.628Z" transform="translate(836.499 604.755)" fill="#462544"/>
      <path id="Tracé_866" data-name="Tracé 866" d="M-551.2-564.908l-8.64-5.092-27.8,9.244-28.624-8.592-6.637,4.658,35.261,6.4Z" transform="translate(715.792 678.641)" fill="#e5e5e5" fill-rule="evenodd"/>
      <path id="Tracé_867" data-name="Tracé 867" d="M-571.4-747.6h24.569v11.078c-1.255,11.971-22.9,12.019-24.569.1Z" transform="translate(676.721 813.378)" fill="#8d8d8d" fill-rule="evenodd"/>
      <path id="Tracé_868" data-name="Tracé 868" d="M-571.4-747.6h12.478l12.092.193v6.251a15.708,15.708,0,0,1-12.405,5.7A16.45,16.45,0,0,1-571.4-740.7Z" transform="translate(676.721 813.378)" fill="#462544" fill-rule="evenodd"/>
      <path id="Tracé_869" data-name="Tracé 869" d="M-620.914-926.768a58.023,58.023,0,0,0,1.979,17.474c6.71,22.518,38.5,19.26,43.877.121a85.766,85.766,0,0,0,2.751-17.57l.386-23.556H-621.3Z" transform="translate(714.578 967.156)" fill="#8d8d8d" fill-rule="evenodd"/>
      <path id="Tracé_870" data-name="Tracé 870" d="M-585.866-979.754a31.549,31.549,0,0,1-5.937-13.974c-12.767,3.548-25.438,4.441-38.809.29a33.81,33.81,0,0,1-3.862,13.685s-8.013-22.108-3.113-34.32c2.341-5.744,13.491,5.5,12.767,1.4-.579-3.379-1.617-4.8-.169-6.058,6.034-5.213,45.856,4.248,41.609,24.787-1.665,7.94-2.486,14.191-2.486,14.191Z" transform="translate(728.138 1020.142)" fill="#d4d4d4" fill-rule="evenodd"/>
      <path id="Tracé_871" data-name="Tracé 871" d="M-710.951-369.072l5.961-2.679a.738.738,0,0,1,1.014.386l31.762,71.077c0,.024-.941,7.168-.99,7.94-.628-.483-6.372-4.586-6.372-4.586l-31.786-71.1a.831.831,0,0,1,.41-1.038Z" transform="translate(782.942 528.3)" fill="#462544" fill-rule="evenodd"/>
      <path id="Tracé_872" data-name="Tracé 872" d="M-797.805-270.1c.676,5.213-8.061,6.3-8.061,6.3s2.413,8.3-5.961,10.74c0,0-.41,9.268-10.957,7.8,0,0-1.569,6.058-10.643,6.347-9.1.265-35.671-4.875-38.182-9.171-4.851-8.158,5.382-58.72,36.154-51.576,9.606,2.22,37,24.352,37.651,29.565Z" transform="translate(905.347 474.076)" fill="#e5e5e5" fill-rule="evenodd"/>
      <path id="Tracé_873" data-name="Tracé 873" d="M-683.176-211.478a.6.6,0,0,1,.169.8.583.583,0,0,1-.772.169l-27.466-19.211a.629.629,0,0,1-.145-.821.572.572,0,0,1,.772-.145Z" transform="translate(782.994 421.293)" fill="#462544"/>
      <path id="Tracé_874" data-name="Tracé 874" d="M-714.214-162.122a.6.6,0,0,1,.193.8.558.558,0,0,1-.772.193l-29.445-17.643a.6.6,0,0,1-.193-.8.558.558,0,0,1,.772-.193Z" transform="translate(808.047 382.653)" fill="#462544"/>
      <path id="Tracé_875" data-name="Tracé 875" d="M-759.463-113.018a.543.543,0,0,1,.314.724.569.569,0,0,1-.748.314l-29.348-12.261a.6.6,0,0,1-.29-.748.522.522,0,0,1,.724-.29Z" transform="translate(842.242 341.296)" fill="#462544"/>
      <path id="Tracé_876" data-name="Tracé 876" d="M-645.908-862.5s-8.182-5.092-9,3.138c-.8,8.254,3.258,15.664,11.1,15.495Z" transform="translate(740.151 901.726)" fill="#8d8d8d" fill-rule="evenodd"/>
      <path id="Tracé_877" data-name="Tracé 877" d="M-645.938-852.138a.6.6,0,0,1-.41-.7.6.6,0,0,1,.7-.41c.024,0,5.213,1.376,6.589,9.606a.586.586,0,0,1-.483.652.6.6,0,0,1-.652-.459c-1.231-7.506-5.7-8.689-5.744-8.689Z" transform="translate(733.592 893.539)" fill="#462544"/>
      <path id="Tracé_878" data-name="Tracé 878" d="M-634.809-837.8a.548.548,0,0,1,.8.024.569.569,0,0,1-.024.8,7.1,7.1,0,0,0-1.834,4.224.558.558,0,0,1-.628.507.557.557,0,0,1-.507-.628,8.3,8.3,0,0,1,2.2-4.924Z" transform="translate(726.495 881.932)" fill="#462544"/>
      <path id="Tracé_879" data-name="Tracé 879" d="M-432.549-862.5s8.182-5.092,9.026,3.138c.772,7.868-2.9,14.964-10.064,15.47-.314.024-.676.024-1.014.024Z" transform="translate(572.938 901.726)" fill="#8d8d8d" fill-rule="evenodd"/>
      <path id="Tracé_880" data-name="Tracé 880" d="M-420.757-853.252a.567.567,0,0,1,.7.41.56.56,0,0,1-.41.7s-4.513,1.183-5.744,8.689a.548.548,0,0,1-.652.459.588.588,0,0,1-.459-.652c1.376-8.23,6.565-9.606,6.565-9.606Z" transform="translate(567.421 893.544)" fill="#462544"/>
      <path id="Tracé_881" data-name="Tracé 881" d="M-419.179-836.982a.548.548,0,0,1-.024-.8.547.547,0,0,1,.8-.024,8.215,8.215,0,0,1,2.172,4.948.589.589,0,0,1-.507.628.585.585,0,0,1-.628-.507,7.182,7.182,0,0,0-1.81-4.248Z" transform="translate(561.378 881.932)" fill="#462544"/>
      <path id="Tracé_882" data-name="Tracé 882" d="M-525.25-858.689a.6.6,0,0,1,.676-.434.623.623,0,0,1,.434.7c-.024.024-3.041,12.84.29,12.936a.533.533,0,0,1,.531.579.583.583,0,0,1-.555.579c-4.73-.145-1.4-14.288-1.376-14.36Z" transform="translate(642.591 897.991)" fill="#462544"/>
      <path id="Tracé_883" data-name="Tracé 883" d="M-571.69-873.154a.925.925,0,0,1,.266,1.279.926.926,0,0,1-1.255.241,6.887,6.887,0,0,0-7.892.314.922.922,0,0,1-1.279-.193.922.922,0,0,1,.193-1.279,8.565,8.565,0,0,1,9.968-.362Z" transform="translate(684.783 909.728)" fill="#462544"/>
      <path id="Tracé_884" data-name="Tracé 884" d="M-525.418-785.253a.591.591,0,0,1,.772-.241.588.588,0,0,1,.217.8c0,.024-3.041,5.865-9.992,3.234a.543.543,0,0,1-.314-.724.543.543,0,0,1,.724-.314c6.01,2.245,8.592-2.751,8.592-2.751Z" transform="translate(648.937 842.174)" fill="#462544"/>
      <path id="Tracé_885" data-name="Tracé 885" d="M-484.69-873.154a.9.9,0,0,1,.241,1.279.893.893,0,0,1-1.231.241,6.887,6.887,0,0,0-7.892.314.919.919,0,0,1-1.279-.193.922.922,0,0,1,.193-1.279,8.573,8.573,0,0,1,9.968-.362Z" transform="translate(618.781 909.728)" fill="#462544"/>
      <path id="Tracé_886" data-name="Tracé 886" d="M-477.529-847.5a1.526,1.526,0,0,0-1.279,1.738,1.61,1.61,0,0,0,1.352,1.738,1.62,1.62,0,0,0,1.327-1.762,1.657,1.657,0,0,0-1.4-1.714Z" transform="translate(606.479 889.167)" fill="#462544" fill-rule="evenodd"/>
      <path id="Tracé_887" data-name="Tracé 887" d="M-564.029-847.5a1.526,1.526,0,0,0-1.279,1.738,1.627,1.627,0,0,0,1.376,1.738,1.551,1.551,0,0,0,1.279-1.762,1.6,1.6,0,0,0-1.376-1.714Z" transform="translate(672.102 889.167)" fill="#462544" fill-rule="evenodd"/>
      <path id="Tracé_888" data-name="Tracé 888" d="M-521.549-468.836l-31.593-36.613c-1.834-2.8-12,4.151-5.261,16.919,0,0-16.726-6.83-23.242-17.16-3.475-7.627-11.705-7.072-11.44-3.765l1.134,8.689c-2.22-4.006-8.037-5.961-7.94-2.969l.169,9.751c-3.138-3.5-6.951-1.714-6.758.193l1.81,11.174c-1.931-1.11-5.7,3.451-4.248,5.334,5.527,19.115,22.759,31.737,48.728,47.3Z" transform="translate(705.43 634.46)" fill="#e5e5e5" fill-rule="evenodd"/>
      <path id="Tracé_889" data-name="Tracé 889" d="M-539.894-467.9a.574.574,0,0,1,.338-.724.549.549,0,0,1,.724.362c0,.024,2.944,8.447,9.123,14,6.2,5.6,7.409,5.961,7.409,5.961a.563.563,0,0,1,.338.724.55.55,0,0,1-.7.362c-.024,0-1.448-.459-7.82-6.179-6.348-5.768-9.413-14.481-9.413-14.505Z" transform="translate(652.842 601.761)" fill="#462544"/>
      <path id="Tracé_890" data-name="Tracé 890" d="M-571-439.669a.562.562,0,0,1,.314-.724.567.567,0,0,1,.724.362c.024.024,2.993,8.447,9.147,14,6.2,5.6,7.385,5.961,7.385,5.961a.624.624,0,0,1,.386.724.587.587,0,0,1-.724.362s-1.424-.459-7.8-6.179c-6.372-5.768-9.437-14.481-9.437-14.505Z" transform="translate(676.445 580.337)" fill="#462544"/>
      <path id="Tracé_891" data-name="Tracé 891" d="M-592.9-393.979a.562.562,0,0,1,.314-.724.562.562,0,0,1,.724.314c.024.024,2.993,8.471,9.147,14.022,6.2,5.551,7.385,5.961,7.385,5.961a.6.6,0,0,1,.386.7.58.58,0,0,1-.724.386s-1.424-.483-7.8-6.2c-6.4-5.744-9.437-14.433-9.437-14.457Z" transform="translate(693.059 545.677)" fill="#462544"/>
      <path id="Tracé_892" data-name="Tracé 892" d="M-557.6-722.869a.611.611,0,0,1,.483-.652.628.628,0,0,1,.652.483c.338,2.462.507,6.806-1.569,10.547-2.1,3.741-6.4,6.9-14.94,6.9a25.787,25.787,0,0,1-6.034-.652c-4.2-1.014-6.71-3.089-8.182-5.527a14.7,14.7,0,0,1-1.907-7.6,22.994,22.994,0,0,1,.579-5.068.573.573,0,0,1,.676-.41.558.558,0,0,1,.434.676,20.88,20.88,0,0,0-.555,4.8,13.683,13.683,0,0,0,1.738,7,11.387,11.387,0,0,0,7.482,5.02,23.824,23.824,0,0,0,5.768.628c8.037,0,12.043-2.872,13.95-6.323s1.738-7.506,1.424-9.823Z" transform="translate(690.15 796.129)" fill="#462544"/>
      <path id="Tracé_893" data-name="Tracé 893" d="M-413.32-177.382a.548.548,0,0,1-.048-.8.548.548,0,0,1,.8-.024l28.865,27.248a.568.568,0,0,1,.024.8.547.547,0,0,1-.8.024Z" transform="translate(556.943 381.526)" fill="#462544"/>
      <path id="Tracé_894" data-name="Tracé 894" d="M-253.228-338.131a.588.588,0,0,1-.217-.8.56.56,0,0,1,.772-.217l24.111,13.564a.6.6,0,0,1,.241.8.566.566,0,0,1-.772.217Z" transform="translate(435.564 503.562)" fill="#462544"/>
    </g>
  </g>
</svg>
