<svg xmlns="http://www.w3.org/2000/svg" width="38.894" height="27.53" viewBox="0 0 38.894 27.53">
  <g id="Groupe_357" data-name="Groupe 357" transform="translate(-7744.5 -617.235)">
    <path id="Union_4" data-name="Union 4" d="M-161,47.025V23.5a2,2,0,0,1,3.016-1.723L-146,28.839v-5.3a2,2,0,0,1,3.015-1.724l19.895,11.723a2,2,0,0,1,0,3.446l-19.895,11.723A2,2,0,0,1-146,46.985v-5.3l-11.984,7.062a1.985,1.985,0,0,1-1.012.28A2,2,0,0,1-161,47.025Z" transform="translate(7905.5 595.738)" fill="#fff"/>
  </g>
</svg>
