<svg id="Groupe_119" data-name="Groupe 119" xmlns="http://www.w3.org/2000/svg" xmlns:xlink="http://www.w3.org/1999/xlink" width="36.374" height="29.307" viewBox="0 0 36.374 29.307">
  <defs>
    <clipPath id="clip-path">
      <rect id="Rectangle_193" data-name="Rectangle 193" width="36.374" height="29.308" fill="#fff"/>
    </clipPath>
  </defs>
  <g id="Groupe_118" data-name="Groupe 118" clip-path="url(#clip-path)">
    <path id="Tracé_1203" data-name="Tracé 1203" d="M112.473,44.779a2.8,2.8,0,1,1,1.983-.822,2.8,2.8,0,0,1-1.983.822m-.953-1.848a1.354,1.354,0,1,0-.394-.956,1.342,1.342,0,0,0,.394.956" transform="translate(-88.374 -31.564)" fill="#fff"/>
    <path id="Tracé_1204" data-name="Tracé 1204" d="M72.513,44.779a2.8,2.8,0,1,1,1.984-.82,2.8,2.8,0,0,1-1.984.82m-.953-1.848a1.354,1.354,0,1,0-.394-.957,1.343,1.343,0,0,0,.394.957" transform="translate(-56.173 -31.564)" fill="#fff"/>
    <path id="Tracé_1205" data-name="Tracé 1205" d="M32.586,44.779a2.8,2.8,0,1,1,1.983-.822,2.793,2.793,0,0,1-1.983.822m-.954-1.846a1.36,1.36,0,1,0-.393-.958,1.342,1.342,0,0,0,.393.958" transform="translate(-24 -31.564)" fill="#fff"/>
    <path id="Tracé_1206" data-name="Tracé 1206" d="M28.071,1.455H5.079a4.186,4.186,0,0,0-2.512.978A2.6,2.6,0,0,0,1.455,4.258V18.188a1.744,1.744,0,0,0,.807,1.325,4.822,4.822,0,0,0,2.4.88l.854.079-.218.827-.783,2.972,6.372-3.747.367-.1H28.071a3.887,3.887,0,0,0,2.324-.728,1.915,1.915,0,0,0,.838-1.505V4.258a2.711,2.711,0,0,0-.978-1.906,3.32,3.32,0,0,0-2.183-.9M5.079,0H28.071a4.787,4.787,0,0,1,3.161,1.278,4.159,4.159,0,0,1,1.456,2.98V18.188a3.326,3.326,0,0,1-1.412,2.659,5.364,5.364,0,0,1-3.2,1.029H11.442L3.728,26.414,2.659,25.6l1.027-3.9a6.09,6.09,0,0,1-2.3-1.03A3.136,3.136,0,0,1,0,18.188V4.258A4.006,4.006,0,0,1,1.652,1.307,5.683,5.683,0,0,1,5.079,0" fill="#fff"/>
    <path id="Tracé_1207" data-name="Tracé 1207" d="M86.819,73.99a1.323,1.323,0,0,0,.514.926,1.884,1.884,0,0,0,1.206.48H99.048l.366.1,2.532,1.488-.171-.69-.223-.9h1.082a.923.923,0,0,0,.739-.317,1.709,1.709,0,0,0,.333-1.089V65.449a1.194,1.194,0,0,0-.263-.848,1.1,1.1,0,0,0-.809-.257V62.889a2.48,2.48,0,0,1,1.844.7,2.586,2.586,0,0,1,.684,1.865V73.99a3.16,3.16,0,0,1-.68,2.027,2.278,2.278,0,0,1-1.1.729l.388,1.566.415,1.672-1.486-.873-3.844-2.259H88.539a3.36,3.36,0,0,1-2.161-.844,2.757,2.757,0,0,1-1.014-2.017Z" transform="translate(-68.787 -50.677)" fill="#fff"/>
  </g>
</svg>
