<svg xmlns="http://www.w3.org/2000/svg" width="21.12" height="21.12" viewBox="0 0 21.12 21.12">
  <path id="Tracé_232" data-name="Tracé 232" d="M598.921,171.141v-4.793h-2.509a.368.368,0,0,0-.383.382v.86a3.473,3.473,0,0,0,.815,2.283A3.672,3.672,0,0,0,598.921,171.141Zm11.611,0a3.672,3.672,0,0,0,2.077-1.268,3.471,3.471,0,0,0,.814-2.283v-.86a.368.368,0,0,0-.382-.382h-2.509Zm-6.737,10.116V177a5.6,5.6,0,0,1-2.849-1.265,5.114,5.114,0,0,1-1.671-2.591,5.777,5.777,0,0,1-3.629-1.826,5.25,5.25,0,0,1-1.479-3.727v-.86a2.247,2.247,0,0,1,2.246-2.246h2.509v-.239A2.247,2.247,0,0,1,601.167,162h7.119a2.247,2.247,0,0,1,2.246,2.246v.239h2.509a2.248,2.248,0,0,1,2.246,2.246v.86a5.25,5.25,0,0,1-1.479,3.727,5.776,5.776,0,0,1-3.629,1.826,5.107,5.107,0,0,1-1.671,2.591A5.6,5.6,0,0,1,605.659,177v4.258h3.488a.932.932,0,1,1,0,1.863h-8.84a.932.932,0,1,1,0-1.863Z" transform="translate(-594.167 -162)" fill="#fff"/>
</svg>
