<svg xmlns="http://www.w3.org/2000/svg" width="31.354" height="32.583" viewBox="0 0 31.354 32.583">
  <path id="Tracé_1202" data-name="Tracé 1202" d="M932.62,192.963a2.863,2.863,0,0,1-2.1-.85,2.815,2.815,0,0,1-.858-2.078V168.354a2.813,2.813,0,0,1,.858-2.077,2.861,2.861,0,0,1,2.1-.851h2.262v-2.181a1.2,1.2,0,0,1,.363-.888,1.3,1.3,0,0,1,1.791,0,1.2,1.2,0,0,1,.36.888v2.181h12.378v-2.211a1.169,1.169,0,0,1,.353-.866,1.266,1.266,0,0,1,1.746,0,1.172,1.172,0,0,1,.352.866v2.211h2.262a2.861,2.861,0,0,1,2.1.851,2.813,2.813,0,0,1,.858,2.077v7.636a1.169,1.169,0,0,1-.352.865,1.264,1.264,0,0,1-1.746,0,1.169,1.169,0,0,1-.352-.865v-1.156H932.118v15.2a.473.473,0,0,0,.157.342.482.482,0,0,0,.345.156h9.994a1.19,1.19,0,0,1,.873.349,1.24,1.24,0,0,1,0,1.731,1.19,1.19,0,0,1-.873.349Zm21.049,1.62a7.12,7.12,0,0,1-5.206-2.128,7.282,7.282,0,0,1,0-10.323,7.433,7.433,0,0,1,10.411,0,7.28,7.28,0,0,1,0,10.323A7.118,7.118,0,0,1,953.669,194.583Zm.722-7.585v-3.754a.683.683,0,0,0-.216-.5.7.7,0,0,0-1.012,0,.684.684,0,0,0-.217.5v3.732a1.483,1.483,0,0,0,.107.555,1.457,1.457,0,0,0,.336.5l2.492,2.47a.715.715,0,0,0,.5.219.686.686,0,0,0,.516-.219.67.67,0,0,0,0-1.009Z" transform="translate(-929.667 -162)" fill="#fff"/>
</svg>
