<svg xmlns="http://www.w3.org/2000/svg" width="30.968" height="32.826" viewBox="0 0 30.968 32.826">
  <path id="Tracé_113" data-name="Tracé 113" d="M1274.245,194.826a2.182,2.182,0,0,1-1.524-.587,2.457,2.457,0,0,1-.774-1.444l-.421-3.232a7.76,7.76,0,0,1-1.418-.652,9.321,9.321,0,0,1-1.3-.9l-2.979,1.273a2.135,2.135,0,0,1-1.629.069,2.348,2.348,0,0,1-1.276-1.05l-1.939-3.376a2.108,2.108,0,0,1-.26-1.61,2.449,2.449,0,0,1,.88-1.4l2.576-1.944c-.037-.257-.068-.515-.08-.774s-.025-.517-.025-.774.006-.5.025-.749.043-.531.08-.832L1261.6,174.9a2.413,2.413,0,0,1-.873-1.408,2.159,2.159,0,0,1,.273-1.618l1.92-3.325a2.407,2.407,0,0,1,1.276-1.042,2.109,2.109,0,0,1,1.629.061l2.961,1.256a11.088,11.088,0,0,1,1.332-.906,8.8,8.8,0,0,1,1.387-.66l.44-3.232a2.457,2.457,0,0,1,.774-1.444,2.182,2.182,0,0,1,1.524-.587h3.809a2.182,2.182,0,0,1,1.524.587,2.432,2.432,0,0,1,.78,1.444l.421,3.249a8.262,8.262,0,0,1,1.4.66,11.974,11.974,0,0,1,1.263.889l3.047-1.256a2.109,2.109,0,0,1,1.629-.061,2.407,2.407,0,0,1,1.276,1.042l1.92,3.342a2.109,2.109,0,0,1,.26,1.61,2.419,2.419,0,0,1-.88,1.4l-2.645,1.994a4.121,4.121,0,0,1,.105.782c.006.243.006.487.006.733s-.006.473-.019.716a4.558,4.558,0,0,1-.118.832l2.6,1.96a2.458,2.458,0,0,1,.886,1.4,2.1,2.1,0,0,1-.248,1.61l-1.951,3.359a2.361,2.361,0,0,1-1.282,1.05,2.145,2.145,0,0,1-1.635-.069L1283.442,188a11.681,11.681,0,0,1-1.3.906,7.954,7.954,0,0,1-1.363.643l-.421,3.249a2.432,2.432,0,0,1-.78,1.444,2.182,2.182,0,0,1-1.524.587Zm.186-2.591h3.382l.619-4.629a9.472,9.472,0,0,0,2.4-.982,10.523,10.523,0,0,0,2.106-1.636l4.274,1.8,1.7-2.937-3.735-2.824a6.972,6.972,0,0,0,.291-1.316,10.131,10.131,0,0,0,.081-1.3,9.887,9.887,0,0,0-.081-1.3,6.655,6.655,0,0,0-.291-1.282l3.766-2.858-1.691-2.937-4.329,1.831a9.127,9.127,0,0,0-2.069-1.638,8.872,8.872,0,0,0-2.44-1.006l-.545-4.629h-3.413l-.57,4.612a8.9,8.9,0,0,0-2.428.957,10.124,10.124,0,0,0-2.131,1.661l-4.274-1.787-1.7,2.937,3.716,2.781a6.291,6.291,0,0,0-.3,1.279,10.159,10.159,0,0,0-.087,1.4,9.337,9.337,0,0,0,.087,1.322,7.665,7.665,0,0,0,.279,1.279l-3.7,2.824,1.7,2.937,4.255-1.814a9.36,9.36,0,0,0,4.565,2.645Zm1.74-8.639a5.183,5.183,0,1,0-3.667-8.853,5.242,5.242,0,0,0,0,7.339A4.943,4.943,0,0,0,1276.171,183.6Z" transform="translate(-1260.666 -162)" fill="#afafaf"/>
</svg>
